<svg id="LOGOS" xmlns="http://www.w3.org/2000/svg" viewBox="0 0 315 180"><defs><style>.cls-1{fill:#191919;}.cls-2{fill:none;stroke:#191919;stroke-miterlimit:10;stroke-width:3px;}.cls-3{fill:#fff;}</style></defs><title>JS-LOGOS</title><g id="Layer_4" data-name="Layer 4"><path class="cls-1" d="M24.3,122.81V106h6v16.84a7.78,7.78,0,0,1-2.31,6,8.32,8.32,0,0,1-5.9,2.15,8.29,8.29,0,0,1-5.88-2.13,7.8,7.8,0,0,1-2.29-6h6a3.17,3.17,0,0,0,.63,2.08,2,2,0,0,0,1.55.67,2,2,0,0,0,1.57-.67A3,3,0,0,0,24.3,122.81Z"/><path class="cls-1" d="M36.38,120.74V106h6v14.76a4.89,4.89,0,0,0,1.09,3.42,4.12,4.12,0,0,0,3.21,1.2,4.24,4.24,0,0,0,3.24-1.2,4.8,4.8,0,0,0,1.13-3.42V106h6v14.76a10.21,10.21,0,0,1-1.53,5.65,9.21,9.21,0,0,1-3.87,3.47A11.89,11.89,0,0,1,46.6,131a10.42,10.42,0,0,1-7.26-2.68A9.65,9.65,0,0,1,36.38,120.74Z"/><path class="cls-1" d="M62.24,130.71V106h6v24.73Z"/><path class="cls-1" d="M75.78,127.34a13,13,0,0,1,0-18.14,12.43,12.43,0,0,1,9-3.58,12.71,12.71,0,0,1,7.33,2.18,11.39,11.39,0,0,1,4.47,6.06H89.4a4.73,4.73,0,0,0-4.51-2.71A6.3,6.3,0,0,0,80,113.09a8.43,8.43,0,0,0,0,10.36,6.29,6.29,0,0,0,4.88,1.94,4.73,4.73,0,0,0,4.51-2.71h7.19a11.39,11.39,0,0,1-4.47,6.06,12.7,12.7,0,0,1-7.33,2.18A12.43,12.43,0,0,1,75.78,127.34Z"/><path class="cls-1" d="M115.44,105.9v4.58h-8.95v5.32h7.89v4.58h-7.89v5.74h8.95v4.58h-15V105.9Z"/><path class="cls-1" d="M207.62,114.72a3.2,3.2,0,0,0,.68,2.11A4,4,0,0,0,210,118a17.94,17.94,0,0,0,2.36.68q1.29.28,2.58.63a11.9,11.9,0,0,1,2.36.9,4.33,4.33,0,0,1,1.75,1.68,5.37,5.37,0,0,1,.68,2.8,6,6,0,0,1-1.86,4.34,6.87,6.87,0,0,1-5.08,1.86,8.76,8.76,0,0,1-5.24-1.45,4.56,4.56,0,0,1-2-3.9h2.33a3.55,3.55,0,0,0,1.29,2.5,5.25,5.25,0,0,0,3.48,1,5.4,5.4,0,0,0,3.68-1.2,3.79,3.79,0,0,0,1.37-3,3.07,3.07,0,0,0-1.26-2.67,7.72,7.72,0,0,0-3-1.24q-1.78-.35-3.56-.8a6.26,6.26,0,0,1-3-1.78,5.36,5.36,0,0,1-1.26-3.84,5.27,5.27,0,0,1,1.87-4.15,7.24,7.24,0,0,1,4.94-1.64,7.51,7.51,0,0,1,4.83,1.42,5.85,5.85,0,0,1,2.14,3.78h-2.49a3.38,3.38,0,0,0-1.32-2.31,5,5,0,0,0-3.27-1,5.2,5.2,0,0,0-3.37,1A3.65,3.65,0,0,0,207.62,114.72Z"/><path class="cls-1" d="M239.34,130.71l-1.82-5.07H227.38l-1.86,5.07h-2.2l8-21.71h2.27l8,21.71ZM228,123.88h8.84l-4.41-12.15Z"/><path class="cls-1" d="M245.57,123.41V109h2.2v14.41a5.49,5.49,0,0,0,1.56,4.3,7.17,7.17,0,0,0,8.51,0,5.52,5.52,0,0,0,1.54-4.3V109h2.2v14.41a7,7,0,0,1-2.23,5.62,9.68,9.68,0,0,1-11.53,0A6.94,6.94,0,0,1,245.57,123.41Z"/><path class="cls-1" d="M268.37,127.78a11.46,11.46,0,0,1,0-15.87,10.78,10.78,0,0,1,7.85-3.13,11.58,11.58,0,0,1,5.93,1.51,9.51,9.51,0,0,1,3.92,4.41h-2.67a7,7,0,0,0-2.89-3,8.73,8.73,0,0,0-4.28-1,8.47,8.47,0,0,0-6.29,2.52,10.11,10.11,0,0,0,0,13.28,8.47,8.47,0,0,0,6.29,2.52A8.63,8.63,0,0,0,280.5,128a7.12,7.12,0,0,0,2.89-3h2.67a9.51,9.51,0,0,1-3.92,4.41,11.58,11.58,0,0,1-5.93,1.51A10.81,10.81,0,0,1,268.37,127.78Z"/><path class="cls-1" d="M301.87,109v1.79H293v8.12h7.9v1.76H293v8.28h8.84v1.76h-11V109Z"/><path class="cls-1" d="M176.34,40.2h-7.68V22a8.63,8.63,0,0,0-17.27,0V40.2h-7.68a1.92,1.92,0,0,0-1.92,1.92V59.39a1.92,1.92,0,0,0,1.92,1.92h32.62a1.92,1.92,0,0,0,1.92-1.92V42.12A1.92,1.92,0,0,0,176.34,40.2Z"/><rect class="cls-1" x="144.56" y="64.92" width="30.94" height="1.68" rx="0.44" ry="0.44"/><path class="cls-1" d="M178.94,94.64H164.37v-25H174.7a.84.84,0,0,0,.84-.84V67.69a.84.84,0,0,0-.84-.84H145.44a.84.84,0,0,0-.84.84v1.15a.84.84,0,0,0,.84.84h9.81v25H140.68a1.92,1.92,0,0,0-1.92,1.92v61.16a1.92,1.92,0,0,0,1.92,1.92h38.26a1.92,1.92,0,0,0,1.92-1.92V96.56A1.92,1.92,0,0,0,178.94,94.64Z"/><rect class="cls-1" x="144.56" y="63.02" width="30.94" height="1.68" rx="0.44" ry="0.44"/><rect class="cls-1" x="144.56" y="61.12" width="30.94" height="1.68" rx="0.44" ry="0.44"/><path class="cls-2" d="M179.41,165.61h-39.2a5.82,5.82,0,0,1-5.84-5.76v-77a7.79,7.79,0,0,1,1.5-4.36c2.08-2.69,5.11-2.26,8.07-4.92a11.39,11.39,0,0,0,3.12-4.84l26.39,0a10.16,10.16,0,0,0,2.63,4.63c2.74,2.68,5.8,2.22,7.8,4.87a7.39,7.39,0,0,1,1.36,4.57v77A5.82,5.82,0,0,1,179.41,165.61Z"/><path class="cls-3" d="M172.64,130.68c2.82-.27,4.36-2.79,4.36-5.89a5.89,5.89,0,0,0-4.47-5.8,6,6,0,0,0-9.58-4.6,8.29,8.29,0,0,0-7.54-5c-4.57-.13-8.36,3.14-8.48,7.3a6.84,6.84,0,0,0,.23,1.87,6.26,6.26,0,0,0-4.11,5.87,6,6,0,0,0,5.47,6.25"/></g></svg>